<?xml version="1.0" encoding="UTF-8"?>
<svg width="480px" height="91px" viewBox="0 0 480 91" version="1.1" xmlns="http://www.w3.org/2000/svg" xmlns:xlink="http://www.w3.org/1999/xlink">
    <!-- Generator: Sketch 54.1 (76490) - https://sketchapp.com -->
    <title>Automizy_logo_color</title>
    <desc>Created with Sketch.</desc>
    <defs>
        <polygon id="path-1" points="0 0.822 105.68367 0.822 105.68367 90.94 0 90.94"></polygon>
    </defs>
    <g id="Symbols" stroke="none" stroke-width="1" fill="none" fill-rule="evenodd">
        <g id="Automizy_logo_color">
            <g id="automizy-logo">
                <mask id="mask-2" fill="white">
                    <use xlink:href="#path-1"></use>
                </mask>
                <g id="Clip-2"></g>
                <path d="M89.794,82.714 C85.419,84.362 80.536,82.151 78.887,77.775 L65.042,41.263 C61.784,32.29 54.867,25.224 44.922,25.224 C33.516,25.224 24.235,34.504 24.235,45.91 C24.235,57.318 33.516,66.598 44.922,66.598 C46.74,66.598 48.503,66.359 50.184,65.916 L41.92,43.982 C40.272,39.607 42.482,34.724 46.858,33.076 C51.234,31.427 56.117,33.638 57.766,38.014 L70.497,71.807 C72.145,76.182 69.935,81.065 65.559,82.714 C64.548,83.095 63.512,83.261 62.493,83.251 L62.493,83.26 L44.922,83.26 C24.295,83.26 7.573,66.538 7.573,45.91 C7.573,25.283 24.295,8.562 44.922,8.562 C61.934,8.562 75.494,20.368 80.782,35.5 C80.954,35.82 94.732,71.807 94.732,71.807 C96.381,76.182 94.17,81.065 89.794,82.714 Z M105.222,77.174 C105.222,77.174 88.587,33.729 88.381,33.341 C81.997,15.074 65.626,0.822 45.089,0.822 C20.187,0.822 0,21.008 0,45.91 C0,70.812 20.187,91 45.089,91 C45.089,91 88.262,90.83 93.47,90.83 C102.672,90.83 107.212,82.455 105.222,77.174 L105.222,77.174 Z" id="Fill-1" fill="#F2801E" mask="url(#mask-2)"></path>
            </g>
            <path d="M149.043,30.38 C146.22,30.38 143.613,31.075 141.225,32.462 C138.835,33.849 136.935,35.798 135.522,38.309 C134.111,40.817 133.406,43.474 133.406,46.272 C133.406,49.047 134.118,51.701 135.541,54.235 C136.965,56.77 138.877,58.743 141.278,60.153 C143.678,61.566 146.256,62.271 149.007,62.271 C151.783,62.271 154.414,61.571 156.899,60.173 C159.384,58.773 161.296,56.879 162.636,54.489 C163.976,52.101 164.646,49.408 164.646,46.416 C164.646,41.855 163.143,38.043 160.139,34.978 C157.134,31.914 153.436,30.38 149.043,30.38 Z M169.32,26.503 L169.32,65.933 L164.319,65.933 L164.319,59.155 C162.193,61.74 159.808,63.686 157.162,64.989 C154.516,66.295 151.623,66.947 148.482,66.947 C142.901,66.947 138.136,64.923 134.185,60.876 C130.235,56.829 128.26,51.906 128.26,46.108 C128.26,40.432 130.253,35.575 134.239,31.54 C138.226,27.505 143.021,25.488 148.627,25.488 C151.864,25.488 154.794,26.176 157.415,27.553 C160.037,28.93 162.338,30.997 164.319,33.751 L164.319,26.503 L169.32,26.503 L169.32,26.503 Z" id="Fill-4" fill="#434341"></path>
            <path d="M184.428,26.503 L189.5,26.503 L189.5,44.913 C189.5,49.406 189.743,52.5 190.226,54.191 C190.952,56.606 192.337,58.516 194.382,59.916 C196.427,61.318 198.863,62.018 201.696,62.018 C204.526,62.018 206.927,61.336 208.9,59.971 C210.871,58.606 212.234,56.812 212.984,54.589 C213.491,53.066 213.746,49.842 213.746,44.913 L213.746,26.503 L218.928,26.503 L218.928,45.854 C218.928,51.291 218.294,55.386 217.026,58.142 C215.758,60.895 213.849,63.052 211.3,64.609 C208.75,66.168 205.555,66.947 201.713,66.947 C197.872,66.947 194.665,66.168 192.092,64.609 C189.519,63.052 187.598,60.876 186.329,58.087 C185.061,55.296 184.428,51.098 184.428,45.494 L184.428,26.503" id="Fill-5" fill="#434341"></path>
            <polyline id="Fill-6" fill="#434341" points="244.037 26.503 252.082 26.503 252.082 30.888 244.037 30.888 244.037 65.933 238.964 65.933 238.964 30.888 232.041 30.888 232.041 26.503 238.964 26.503"></polyline>
            <path d="M282.684,30.453 C278.463,30.453 274.84,32.011 271.809,35.127 C268.779,38.244 267.264,42.014 267.264,46.434 C267.264,49.284 267.954,51.943 269.335,54.409 C270.717,56.872 272.585,58.774 274.937,60.116 C277.287,61.457 279.871,62.127 282.684,62.127 C285.494,62.127 288.078,61.457 290.431,60.116 C292.783,58.774 294.648,56.872 296.031,54.409 C297.412,51.943 298.104,49.284 298.104,46.434 C298.104,42.014 296.584,38.244 293.539,35.127 C290.494,32.011 286.877,30.453 282.684,30.453 Z M282.701,25.488 C288.775,25.488 293.809,27.686 297.803,32.083 C301.436,36.094 303.25,40.843 303.25,46.326 C303.25,51.834 301.331,56.648 297.496,60.768 C293.66,64.889 288.728,66.947 282.701,66.947 C276.65,66.947 271.706,64.889 267.871,60.768 C264.035,56.648 262.116,51.834 262.116,46.326 C262.116,40.865 263.93,36.129 267.563,32.12 C271.555,27.698 276.604,25.488 282.701,25.488 L282.701,25.488 Z" id="Fill-7" fill="#434341"></path>
            <path d="M316.942,26.503 L322.016,26.503 L322.016,33.316 C323.781,30.803 325.596,28.967 327.458,27.807 C330.023,26.261 332.719,25.488 335.549,25.488 C337.46,25.488 339.273,25.862 340.992,26.612 C342.709,27.36 344.113,28.356 345.199,29.601 C346.289,30.845 347.231,32.628 348.031,34.947 C349.719,31.854 351.826,29.504 354.356,27.898 C356.887,26.291 359.611,25.488 362.529,25.488 C365.254,25.488 367.658,26.176 369.74,27.553 C371.827,28.93 373.376,30.851 374.388,33.316 C375.401,35.779 375.906,39.476 375.906,44.405 L375.906,65.933 L370.724,65.933 L370.724,44.405 C370.724,40.177 370.421,37.271 369.82,35.689 C369.217,34.107 368.188,32.833 366.73,31.865 C365.275,30.9 363.536,30.416 361.512,30.416 C359.055,30.416 356.811,31.142 354.775,32.59 C352.74,34.041 351.254,35.975 350.313,38.39 C349.375,40.806 348.906,44.84 348.906,50.493 L348.906,65.933 L343.832,65.933 L343.832,45.746 C343.832,40.986 343.537,37.755 342.945,36.052 C342.354,34.348 341.32,32.983 339.846,31.957 C338.372,30.93 336.621,30.416 334.592,30.416 C332.247,30.416 330.056,31.123 328.014,32.536 C325.972,33.949 324.462,35.853 323.483,38.244 C322.506,40.637 322.016,44.297 322.016,49.226 L322.016,65.933 L316.942,65.933 L316.942,26.503" id="Fill-8" fill="#434341"></path>
            <polygon id="Fill-9" fill="#434341" points="390.18 65.933 395.254 65.933 395.254 26.503 390.18 26.503"></polygon>
            <polyline id="Fill-10" fill="#434341" points="406.918 26.503 435.874 26.503 413.55 61.438 435.15 61.438 435.15 65.933 404.816 65.933 427.121 30.96 406.918 30.96 406.918 26.503"></polyline>
            <polyline id="Fill-11" fill="#434341" points="441.774 26.503 447.139 26.503 460.688 56.865 473.849 26.503 479.248 26.503 455.728 80.357 450.368 80.357 457.959 62.945 441.774 26.503"></polyline>
        </g>
    </g>
</svg>