<?xml version="1.0" encoding="UTF-8"?>
<svg width="106px" height="91px" viewBox="0 0 106 91" version="1.1" xmlns="http://www.w3.org/2000/svg" xmlns:xlink="http://www.w3.org/1999/xlink">
    <!-- Generator: Sketch 54.1 (76490) - https://sketchapp.com -->
    <title>automizy-logo</title>
    <desc>Created with Sketch.</desc>
    <defs>
        <polygon id="path-1" points="0 0.822 105.68367 0.822 105.68367 90.94 0 90.94"></polygon>
    </defs>
    <g id="Symbols" stroke="none" stroke-width="1" fill="none" fill-rule="evenodd">
        <g id="Automizy_logo_white_transparent-(1)">
            <g id="automizy-logo">
                <mask id="mask-2" fill="white">
                    <use xlink:href="#path-1"></use>
                </mask>
                <g id="Clip-2"></g>
                <path d="M89.794,82.714 C85.419,84.362 80.536,82.151 78.887,77.775 L65.042,41.263 C61.784,32.29 54.867,25.224 44.922,25.224 C33.516,25.224 24.235,34.504 24.235,45.91 C24.235,57.318 33.516,66.598 44.922,66.598 C46.74,66.598 48.503,66.359 50.184,65.916 L41.92,43.982 C40.272,39.607 42.482,34.724 46.858,33.076 C51.234,31.427 56.117,33.638 57.766,38.014 L70.497,71.807 C72.145,76.182 69.935,81.065 65.559,82.714 C64.548,83.095 63.512,83.261 62.493,83.251 L62.493,83.26 L44.922,83.26 C24.295,83.26 7.573,66.538 7.573,45.91 C7.573,25.283 24.295,8.562 44.922,8.562 C61.934,8.562 75.494,20.368 80.782,35.5 C80.954,35.82 94.732,71.807 94.732,71.807 C96.381,76.182 94.17,81.065 89.794,82.714 Z M105.222,77.174 C105.222,77.174 88.587,33.729 88.381,33.341 C81.997,15.074 65.626,0.822 45.089,0.822 C20.187,0.822 0,21.008 0,45.91 C0,70.812 20.187,91 45.089,91 C45.089,91 88.262,90.83 93.47,90.83 C102.672,90.83 107.212,82.455 105.222,77.174 L105.222,77.174 Z" id="Fill-1" fill="#F2801E" mask="url(#mask-2)"></path>
            </g>
        </g>
    </g>
</svg>